<mxfile host="app.diagrams.net" agent="Mozilla/5.0 (Windows NT 10.0; Win64; x64) AppleWebKit/537.36 (KHTML, like Gecko) Chrome/131.0.0.0 Safari/537.36" version="24.8.6">
  <diagram name="Trang-1" id="GV8U6cnqcwkwbOuNpEV_">
    <mxGraphModel dx="1411" dy="863" grid="0" gridSize="10" guides="1" tooltips="1" connect="1" arrows="1" fold="1" page="1" pageScale="1" pageWidth="827" pageHeight="1169" math="0" shadow="0">
      <root>
        <mxCell id="0" />
        <mxCell id="1" parent="0" />
        <mxCell id="cn-CdhzAHd9augoCKjeN-1" value="Author       " style="swimlane;fontStyle=0;childLayout=stackLayout;horizontal=1;startSize=30;horizontalStack=0;resizeParent=1;resizeParentMax=0;resizeLast=0;collapsible=1;marginBottom=0;whiteSpace=wrap;html=1;" vertex="1" parent="1">
          <mxGeometry x="86" y="149" width="253" height="242" as="geometry" />
        </mxCell>
        <mxCell id="cn-CdhzAHd9augoCKjeN-2" value="- authorId: string&lt;div&gt;&amp;nbsp;- name: string&amp;nbsp;&amp;nbsp;&lt;div&gt;- specialization:&amp;nbsp;&lt;/div&gt;&lt;div&gt;&amp;nbsp;- phone: string&lt;/div&gt;&lt;/div&gt;" style="text;strokeColor=none;fillColor=none;align=left;verticalAlign=middle;spacingLeft=4;spacingRight=4;overflow=hidden;points=[[0,0.5],[1,0.5]];portConstraint=eastwest;rotatable=0;whiteSpace=wrap;html=1;" vertex="1" parent="cn-CdhzAHd9augoCKjeN-1">
          <mxGeometry y="30" width="253" height="108" as="geometry" />
        </mxCell>
        <mxCell id="cn-CdhzAHd9augoCKjeN-3" value="+ getId(): string" style="text;strokeColor=none;fillColor=none;align=left;verticalAlign=middle;spacingLeft=4;spacingRight=4;overflow=hidden;points=[[0,0.5],[1,0.5]];portConstraint=eastwest;rotatable=0;whiteSpace=wrap;html=1;" vertex="1" parent="cn-CdhzAHd9augoCKjeN-1">
          <mxGeometry y="138" width="253" height="104" as="geometry" />
        </mxCell>
        <mxCell id="cn-CdhzAHd9augoCKjeN-5" value="Paper               " style="swimlane;fontStyle=0;childLayout=stackLayout;horizontal=1;startSize=30;horizontalStack=0;resizeParent=1;resizeParentMax=0;resizeLast=0;collapsible=1;marginBottom=0;whiteSpace=wrap;html=1;" vertex="1" parent="1">
          <mxGeometry x="418" y="163" width="253" height="242" as="geometry" />
        </mxCell>
        <mxCell id="cn-CdhzAHd9augoCKjeN-6" value="- authorId: string&lt;div&gt;&amp;nbsp;- name: string&amp;nbsp;&amp;nbsp;&lt;div&gt;- specialization:&amp;nbsp;&lt;/div&gt;&lt;div&gt;&amp;nbsp;- phone: string&lt;/div&gt;&lt;/div&gt;" style="text;strokeColor=none;fillColor=none;align=left;verticalAlign=middle;spacingLeft=4;spacingRight=4;overflow=hidden;points=[[0,0.5],[1,0.5]];portConstraint=eastwest;rotatable=0;whiteSpace=wrap;html=1;" vertex="1" parent="cn-CdhzAHd9augoCKjeN-5">
          <mxGeometry y="30" width="253" height="108" as="geometry" />
        </mxCell>
        <mxCell id="cn-CdhzAHd9augoCKjeN-7" value="+ getId(): string" style="text;strokeColor=none;fillColor=none;align=left;verticalAlign=middle;spacingLeft=4;spacingRight=4;overflow=hidden;points=[[0,0.5],[1,0.5]];portConstraint=eastwest;rotatable=0;whiteSpace=wrap;html=1;" vertex="1" parent="cn-CdhzAHd9augoCKjeN-5">
          <mxGeometry y="138" width="253" height="104" as="geometry" />
        </mxCell>
      </root>
    </mxGraphModel>
  </diagram>
</mxfile>
